<svg viewBox="0 0 155 130" xmlns="http://www.w3.org/2000/svg">
<path d="m6.7093 65.422c0.15752 0.2821 0.26648 0.4853 0.38219 0.6842 5.8275 9.9767 13.316 18.502 22.582 25.396 12.922 9.6153 27.378 15.172 43.543 16.049 4.9022 0.266 9.7833 0.077 14.648-0.559 5.3875-0.704 10.635-1.99 15.747-3.833 11.331-4.0844 21.304-10.333 29.921-18.746 4.586-4.4778 8.652-9.3855 12.121-14.78 0.873-1.3582 1.701-2.7455 2.551-4.1205-0.138-0.2488-0.245-0.4515-0.36-0.6496-3.275-5.6353-7.146-10.825-11.611-15.574-4.843-5.151-10.195-9.6913-16.184-13.461-11.078-6.9741-23.078-11.253-36.176-12.297-3.5859-0.2863-7.1735-0.3332-10.765-0.1406-4.1172 0.2209-8.1925 0.7589-12.221 1.6331-6.4309 1.3953-12.579 3.607-18.461 6.5437-13.562 6.7701-24.401 16.612-32.798 29.187-1.0131 1.5174-1.9384 3.0939-2.9182 4.6657zm66.811 64.412c0.0114-0.209 0.0316-0.418 0.0321-0.627 0.0012-4.916 4e-4 -9.832 0-14.748v-0.705c-5.1388-0.258-10.173-0.971-15.21-2.155-1.0245 4.59-2.0326 9.107-3.0542 13.684-2.0127-0.442-3.99-0.875-6.0433-1.325 1.022-4.684 2.0305-9.31 3.0534-13.998-4.0635-1.283-7.9847-2.807-11.851-4.667-2.3848 3.939-4.7485 7.844-7.1413 11.798-1.7847-1.085-3.5188-2.139-5.3123-3.229 2.3164-3.837 4.6125-7.64 6.9403-11.496-4.9428-2.8731-9.5532-6.1532-13.936-9.9046-2.7121 3.422-5.4031 6.8182-8.1313 10.262-1.6276-1.299-3.2121-2.564-4.8667-3.8843 2.824-3.5677 5.6087-7.086 8.4235-10.641-0.5757-0.6415-1.1344-1.2619-1.6901-1.884-2.4765-2.7729-4.9327-5.564-7.1933-8.518-2.6593-3.4748-5.0471-7.1283-7.1578-10.962-0.38219-0.6237-0.38219-1.1385-0.38219-1.4012 0-0.2204-7.5516e-8 -0.6406 0.38726-1.3396 3.3726-6.0602 7.3428-11.699 11.908-16.917 1.1191-1.2796 2.2902-2.5128 3.4815-3.8152-2.5613-3.2362-5.1374-6.4918-7.7528-9.7969 1.5642-1.3733 3.1952-2.579 4.8414-3.9144 2.4802 3.1167 4.9292 6.2258 7.4238 9.3644 1.5073-1.2082 2.9655-2.4287 4.4787-3.5766 1.5047-1.1419 3.0432-2.2433 4.6066-3.3037 1.579-1.071 3.2074-2.0698 4.8912-3.1501-2.0934-3.4684-4.1919-6.9445-6.3254-10.479 1.7779-1.0815 3.5098-2.1352 5.3135-3.2328 2.18 3.5821 4.3355 7.1249 6.5151 10.706 3.9731-1.9603 8.0307-3.604 12.302-4.9537-1.0689-4.8845-2.134-9.7517-3.2147-14.69 2.028-0.44596 4.0057-0.88094 6.059-1.3324 1.0566 4.8203 2.101 9.5861 3.166 14.444 5.094-1.2095 10.221-1.984 15.442-2.2437 0.0114-0.2568 0.027-0.443 0.027-0.6293 0.0021-5.357 0.0025-10.714 0.0013-16.071-5e-4 -0.16724-0.0207-0.33405-0.0321-0.50087h6.3026c-0.011 0.12501-0.0317 0.25001-0.0317 0.37501-0.0017 5.3989-0.0017 10.798 4e-4 16.197 0 0.1622 0.0258 0.3248 0.0448 0.5436 5.2303 0.1604 10.374 0.8378 15.505 1.9637 1.0347-4.7215 2.0525-9.3673 3.0846-14.077 2.0339 0.44596 4.0129 0.87969 6.0759 1.332-1.054 4.7806-2.094 9.5029-3.145 14.272 4.348 1.2741 8.499 2.9009 12.577 4.8262 2.06-3.3933 4.094-6.7452 6.164-10.157 1.784 1.0853 3.528 2.1457 5.304 3.2269-2.004 3.3202-3.962 6.5644-5.946 9.85 5.044 2.8878 9.69 6.2186 14.106 9.9404 2.303-2.9068 4.557-5.7515 6.842-8.6354 1.648 1.2838 3.293 2.5009 4.86 3.9186-2.364 3.0018-4.701 5.9686-7.127 9.0481 0.283 0.2327 0.578 0.4375 0.828 0.6875 4.759 4.7582 8.877 10.032 12.499 15.692 1.291 2.0191 2.718 3.9761 3.486 6.2912 0.023 0.0739 0.037 0.1254 0.037 0.1888 0 0.0625-0.017 0.1026-0.037 0.1892-0.178 0.5975-0.401 1.1694-0.71 1.7209-1.944 3.4676-4.131 6.7777-6.453 9.9974-2.882 3.9943-6.117 7.6895-9.631 11.14-0.176 0.1719-0.345 0.3514-0.532 0.5431 2.583 3.2691 5.131 6.4922 7.717 9.7652-1.652 1.3194-3.235 2.5854-4.861 3.8844-2.527-3.1745-4.996-6.3157-7.441-9.383-2.349 1.7476-4.58 3.4998-6.908 5.1117-2.343 1.6213-4.783 3.1033-7.215 4.6693 2.14 3.543 4.305 7.128 6.488 10.744-1.811 1.1-3.542 2.152-5.314 3.229-2.296-3.779-4.551-7.489-6.829-11.239-3.956 1.827-7.998 3.322-12.195 4.56 1 4.555 1.987 9.051 2.987 13.606-2.056 0.449-4.034 0.88-6.0678 1.324-0.9852-4.492-1.954-8.91-2.9161-13.297-2.5748 0.411-5.0698 0.882-7.5847 1.192-2.5343 0.312-5.0881 0.465-7.6937 0.692v0.59c-4e-4 4.916-0.0013 9.831 0 14.747 0 0.188 0.0211 0.376 0.0321 0.564h-6.3026z" fill="#fff"/>
<path d="m85.94 61.377c-3.6142 0-6.5442-2.93-6.5442-6.5441 0-3.6142 2.93-6.5442 6.5442-6.5442 3.6146 0 6.5442 2.93 6.5442 6.5442 0 3.6141-2.9296 6.5441-6.5442 6.5441zm-8.4463-23.967c-14.872 0-26.928 12.056-26.928 26.928 0 14.872 12.056 26.928 26.928 26.928 14.872 0 26.929-12.056 26.929-26.928 0-14.872-12.056-26.928-26.929-26.928" fill="#fff"/>
</svg>
