<svg width="559" height="486" viewBox="0 0 559 486" fill="none" xmlns="http://www.w3.org/2000/svg">
<path d="M444.596 259.627C444.596 240.141 432.476 223.748 415.867 217.863C405.714 214.266 396.065 205.521 394.206 193.51C387.176 148.073 349.19 113.651 303.728 113.651C276.09 113.651 251.265 126.337 234.421 146.511C228.64 153.436 219.612 155.958 211.451 154.677L211.063 154.613C188.744 150.766 171.182 167.554 165.026 191.569C161.817 204.09 151.643 213.725 140.701 218.483L140.179 218.706C124.698 225.206 113.631 241.009 113.631 259.627C113.631 284.199 132.828 303.736 156.043 303.736H222.397C230.024 303.736 235.773 310.679 234.361 318.186L226.407 360.457C235.771 350.321 247.844 337.516 258.719 326.798C264.787 320.819 270.589 315.382 275.392 311.403C277.78 309.424 280.064 307.687 282.1 306.408C283.117 305.769 284.202 305.161 285.304 304.695C286.277 304.283 287.745 303.769 289.441 303.738L289.606 303.736H402.184C425.4 303.736 444.596 284.199 444.596 259.627ZM458.227 259.627C458.227 291.315 433.344 317.386 402.184 317.386H290.36C290.129 317.503 289.793 317.689 289.343 317.971C288.032 318.795 286.269 320.108 284.08 321.921C279.729 325.526 274.254 330.64 268.28 336.528C256.361 348.274 233.561 372.33 223.908 382.839C218.266 388.981 207.415 385.569 209.051 377.788L220.64 317.386H156.043C124.884 317.386 100 291.315 100 259.627C100 235.525 114.349 214.75 134.909 206.118L135.292 205.954C143.325 202.457 149.899 195.684 151.824 188.175C158.882 160.638 181.093 135.596 213.376 141.161L213.575 141.193C217.762 141.85 221.723 140.439 223.964 137.755L224.417 137.216C243.675 114.453 272.045 100 303.728 100C356.341 100 399.684 139.763 407.676 191.42C408.569 197.188 413.631 202.591 420.414 204.994C442.517 212.826 458.227 234.411 458.227 259.627Z" fill="white"/>
<path d="M318.739 251.852C322.444 251.816 325.487 254.748 325.617 258.435L325.62 258.611L325.621 258.977C325.581 266.651 321.905 272.576 316.613 276.36C311.458 280.046 304.961 281.618 298.852 281.58C292.736 281.543 286.268 279.889 281.118 276.236C275.866 272.512 272.05 266.695 271.859 259.107L271.853 258.744L271.853 258.568C271.91 254.879 274.896 251.889 278.601 251.852C282.306 251.816 285.35 254.747 285.479 258.434L285.489 258.873C285.589 261.568 286.822 263.555 288.996 265.096C291.423 266.818 295.017 267.906 298.936 267.93C302.861 267.954 306.373 266.908 308.692 265.25C310.724 263.797 311.942 261.859 311.989 259.021L311.991 258.568C312.048 254.879 315.034 251.888 318.739 251.852Z" fill="white"/>
<path d="M354.782 157.466L354.958 157.468C358.641 157.561 361.597 160.58 361.597 164.291C361.597 168.002 358.641 171.021 354.958 171.114L354.782 171.116H331.293C327.529 171.116 324.478 168.06 324.478 164.291C324.478 160.521 327.529 157.466 331.293 157.466H354.782Z" fill="white"/>
<path d="M321.628 196.564C327.06 186.724 338.867 180.811 352.947 184.459L353.28 184.547L353.45 184.595C356.982 185.643 359.055 189.327 358.093 192.91C357.131 196.493 353.493 198.641 349.913 197.774L349.742 197.73L349.35 197.628C341.15 195.572 335.84 199.033 333.557 203.169C331.203 207.433 331.592 213.029 336.495 217.131L336.732 217.325L336.868 217.437C339.682 219.818 340.103 224.025 337.785 226.92C335.466 229.814 331.274 230.317 328.342 228.083L328.204 227.974L327.956 227.773C317.568 219.244 316.267 206.275 321.628 196.564Z" fill="white"/>
<path d="M255.751 170.775C258.671 168.527 262.867 169.01 265.198 171.893C267.53 174.777 267.129 178.987 264.325 181.38L264.19 181.493L244.711 197.287L253.617 199.676C256.088 200.339 257.98 202.333 258.517 204.838C259.053 207.343 258.143 209.938 256.161 211.558L226.223 236.017L226.085 236.126C223.173 238.385 218.976 237.918 216.634 235.043C214.254 232.122 214.69 227.822 217.606 225.44L237.226 209.41L228.262 207.005C225.787 206.341 223.892 204.342 223.36 201.831C222.827 199.321 223.745 196.723 225.737 195.108L255.612 170.884L255.751 170.775Z" fill="white"/>
</svg>
