<svg width="1355" height="486" viewBox="0 0 1355 486" fill="none" xmlns="http://www.w3.org/2000/svg">
<path d="M1166.67 370.875L1194.05 309.904H1188.09L1144.14 210.935H1160.92L1198.91 299.3L1238.88 210.935H1254.78L1182.79 370.875H1166.67Z" fill="#121212"/>
<path d="M959.679 322.275V210.935H973.813L974.918 227.724C978.304 221.539 983.015 216.752 989.052 213.365C995.088 209.978 1001.79 208.284 1009.15 208.284C1014.6 208.284 1019.68 209.094 1024.39 210.714C1029.1 212.334 1033.22 214.764 1036.75 218.004C1040.44 221.244 1043.31 225.442 1045.37 230.596C1049.05 223.674 1054.2 218.225 1060.83 214.249C1067.6 210.272 1074.81 208.284 1082.47 208.284C1091.01 208.284 1098.37 209.978 1104.56 213.365C1110.89 216.752 1115.82 221.907 1119.35 228.829C1122.89 235.751 1124.65 244.514 1124.65 255.117V322.275H1109.19V256.885C1109.19 245.103 1106.76 236.34 1101.9 230.596C1097.05 224.705 1090.27 221.76 1081.59 221.76C1075.7 221.76 1070.32 223.38 1065.46 226.62C1060.61 229.713 1056.78 234.278 1053.98 240.316C1051.18 246.207 1049.78 253.571 1049.78 262.407V322.275H1034.33V256.885C1034.33 245.103 1031.9 236.34 1027.04 230.596C1022.33 224.705 1015.63 221.76 1006.94 221.76C1000.9 221.76 995.456 223.38 990.598 226.62C985.886 229.713 982.132 234.352 979.335 240.537C976.537 246.575 975.138 254.086 975.138 263.07V322.275H959.679Z" fill="#121212"/>
<path d="M875.464 322.275V210.935H889.598L890.703 232.363C893.058 227.209 896.224 222.864 900.199 219.33C904.174 215.795 908.959 213.071 914.554 211.156C920.149 209.241 926.48 208.284 933.547 208.284V224.411H927.584C922.873 224.411 918.309 225.073 913.892 226.399C909.475 227.577 905.573 229.639 902.187 232.584C898.8 235.53 896.077 239.506 894.015 244.514C891.954 249.521 890.924 255.78 890.924 263.291V322.275H875.464Z" fill="#121212"/>
<path d="M789.811 324.925C779.652 324.925 770.45 322.569 762.205 317.856C754.107 312.996 747.702 306.222 742.991 297.532C738.279 288.696 735.924 278.46 735.924 266.826C735.924 254.749 738.279 244.366 742.991 235.677C747.85 226.988 754.401 220.287 762.646 215.574C770.891 210.714 780.093 208.284 790.252 208.284C800.853 208.284 810.202 210.714 818.3 215.574C826.398 220.287 832.802 226.988 837.514 235.677C842.225 244.366 844.581 254.749 844.581 266.826C844.581 278.46 842.151 288.696 837.293 297.532C832.581 306.222 826.103 312.996 817.858 317.856C809.76 322.569 800.411 324.925 789.811 324.925ZM790.031 311.671C796.951 311.671 803.282 309.977 809.024 306.59C814.914 303.203 819.625 298.195 823.158 291.568C826.839 284.793 828.68 276.472 828.68 266.605C828.68 256.59 826.913 248.269 823.379 241.642C819.846 235.014 815.134 230.081 809.245 226.841C803.503 223.453 797.172 221.76 790.252 221.76C783.627 221.76 777.37 223.453 771.48 226.841C765.591 230.228 760.806 235.235 757.125 241.863C753.592 248.343 751.825 256.59 751.825 266.605C751.825 276.472 753.592 284.793 757.125 291.568C760.659 298.195 765.297 303.203 771.039 306.59C776.928 309.977 783.259 311.671 790.031 311.671Z" fill="#121212"/>
<path d="M697.022 322.275C690.691 322.275 685.244 321.318 680.68 319.403C676.115 317.341 672.582 314.028 670.079 309.462C667.723 304.749 666.545 298.343 666.545 290.243V224.19H647.111V210.935H666.545L668.754 185.089H682.005V211.156H715.353V224.19H682.005V290.243C682.005 297.606 683.477 302.614 686.422 305.265C689.366 307.768 694.593 309.02 702.102 309.02H713.586V322.275H697.022Z" fill="#121212"/>
<path d="M572.869 324.926C561.532 324.926 551.667 322.865 543.275 318.741C535.03 314.617 528.699 308.873 524.282 301.51C519.865 293.999 517.657 285.457 517.657 275.884H533.779C533.779 282.364 535.251 288.329 538.196 293.778C541.14 299.227 545.484 303.645 551.226 307.033C556.968 310.273 564.182 311.893 572.869 311.893C580.525 311.893 586.929 310.641 592.083 308.137C597.383 305.486 601.432 302.025 604.229 297.754C607.027 293.483 608.425 288.623 608.425 283.174C608.425 276.694 607.027 271.466 604.229 267.489C601.579 263.513 597.898 260.273 593.187 257.769C588.475 255.266 583.101 253.13 577.065 251.363C571.176 249.448 564.918 247.386 558.293 245.177C546.367 241.054 537.607 235.973 532.012 229.934C526.417 223.896 523.546 216.164 523.399 206.739C523.399 198.639 525.239 191.496 528.92 185.31C532.748 178.977 538.269 174.044 545.484 170.509C552.698 166.827 561.238 164.986 571.102 164.986C580.672 164.986 588.991 166.827 596.058 170.509C603.272 174.044 608.867 179.051 612.842 185.531C616.817 191.864 618.805 199.154 618.805 207.401H602.904C602.904 202.689 601.653 198.123 599.15 193.705C596.794 189.139 593.187 185.457 588.328 182.659C583.617 179.714 577.58 178.241 570.219 178.241C564.182 178.241 558.808 179.346 554.097 181.555C549.533 183.617 545.925 186.709 543.275 190.833C540.625 194.809 539.3 199.522 539.3 204.971C539.3 210.273 540.478 214.618 542.834 218.005C545.189 221.392 548.502 224.191 552.772 226.4C557.041 228.609 562.047 230.671 567.789 232.585C573.531 234.353 579.936 236.414 587.003 238.771C594.217 241.274 600.622 244.294 606.217 247.828C611.812 251.363 616.229 255.928 619.468 261.525C622.707 266.974 624.326 273.896 624.326 282.29C624.326 289.507 622.412 296.429 618.584 303.056C614.903 309.536 609.235 314.838 601.579 318.962C593.923 322.938 584.353 324.926 572.869 324.926Z" fill="#121212"/>
<g clip-path="url(#paint0_diamond_1008_141_clip_path)" data-figma-skip-parse="true"><g transform="matrix(0 -0.192033 0.252192 0 291.545 334.041)"><rect x="0" y="0" width="1223.96" height="764.341" fill="url(#paint0_diamond_1008_141)" opacity="1" shape-rendering="crispEdges"/><rect x="0" y="0" width="1223.96" height="764.341" transform="scale(1 -1)" fill="url(#paint0_diamond_1008_141)" opacity="1" shape-rendering="crispEdges"/><rect x="0" y="0" width="1223.96" height="764.341" transform="scale(-1 1)" fill="url(#paint0_diamond_1008_141)" opacity="1" shape-rendering="crispEdges"/><rect x="0" y="0" width="1223.96" height="764.341" transform="scale(-1)" fill="url(#paint0_diamond_1008_141)" opacity="1" shape-rendering="crispEdges"/></g></g><path d="M444.38 259.627C444.38 240.141 432.259 223.748 415.651 217.863C405.498 214.266 395.848 205.521 393.99 193.51C386.959 148.073 348.974 113.651 303.511 113.651C275.874 113.651 251.049 126.337 234.205 146.511C228.423 153.436 219.395 155.958 211.235 154.677L210.847 154.613C188.528 150.766 170.965 167.554 164.81 191.569C161.601 204.09 151.427 213.725 140.485 218.483L139.963 218.706C124.482 225.206 113.415 241.009 113.415 259.627C113.415 284.199 132.611 303.736 155.827 303.736H222.181C229.808 303.736 235.557 310.679 234.145 318.186L226.19 360.457C235.555 350.321 247.628 337.516 258.503 326.798C264.571 320.819 270.372 315.382 275.176 311.403C277.564 309.424 279.847 307.687 281.883 306.408C282.9 305.769 283.986 305.161 285.087 304.695C286.061 304.283 287.528 303.769 289.225 303.738L289.39 303.736H401.967C425.183 303.736 444.38 284.199 444.38 259.627ZM458.011 259.627C458.011 291.315 433.127 317.386 401.967 317.386H290.144C289.913 317.503 289.577 317.689 289.127 317.971C287.816 318.795 286.053 320.108 283.864 321.921C279.513 325.526 274.038 330.64 268.064 336.528C256.145 348.274 233.344 372.33 223.692 382.839C218.05 388.981 207.199 385.569 208.834 377.788L220.424 317.386H155.827C124.667 317.386 99.7837 291.315 99.7837 259.627C99.7837 235.525 114.133 214.75 134.692 206.118L135.076 205.954C143.108 202.457 149.683 195.684 151.607 188.175C158.665 160.638 180.877 135.596 213.159 141.161L213.359 141.193C217.545 141.85 221.507 140.439 223.748 137.755L224.201 137.216C243.459 114.453 271.829 100 303.511 100C356.124 100 399.467 139.763 407.46 191.42C408.353 197.188 413.414 202.591 420.197 204.994C442.301 212.826 458.011 234.411 458.011 259.627Z" data-figma-gradient-fill="{&#34;type&#34;:&#34;GRADIENT_DIAMOND&#34;,&#34;stops&#34;:[{&#34;color&#34;:{&#34;r&#34;:1.0,&#34;g&#34;:0.18431372940540314,&#34;b&#34;:0.18039216101169586,&#34;a&#34;:1.0},&#34;position&#34;:0.0},{&#34;color&#34;:{&#34;r&#34;:0.23137255012989044,&#34;g&#34;:0.14117647707462311,&#34;b&#34;:0.40784314274787903,&#34;a&#34;:1.0},&#34;position&#34;:1.0}],&#34;stopsVar&#34;:[{&#34;color&#34;:{&#34;r&#34;:1.0,&#34;g&#34;:0.18431372940540314,&#34;b&#34;:0.18039216101169586,&#34;a&#34;:1.0},&#34;position&#34;:0.0},{&#34;color&#34;:{&#34;r&#34;:0.23137255012989044,&#34;g&#34;:0.14117647707462311,&#34;b&#34;:0.40784314274787903,&#34;a&#34;:1.0},&#34;position&#34;:1.0}],&#34;transform&#34;:{&#34;m00&#34;:-1.4004391179697762e-12,&#34;m01&#34;:504.38491821289062,&#34;m02&#34;:39.3522949218750,&#34;m10&#34;:-384.06646728515625,&#34;m11&#34;:-1.3287552481922038e-12,&#34;m12&#34;:526.073730468750},&#34;opacity&#34;:1.0,&#34;blendMode&#34;:&#34;NORMAL&#34;,&#34;visible&#34;:true}"/>
<g clip-path="url(#paint1_diamond_1008_141_clip_path)" data-figma-skip-parse="true"><g transform="matrix(0 -0.192033 0.252192 0 291.545 334.041)"><rect x="0" y="0" width="1223.96" height="764.341" fill="url(#paint1_diamond_1008_141)" opacity="1" shape-rendering="crispEdges"/><rect x="0" y="0" width="1223.96" height="764.341" transform="scale(1 -1)" fill="url(#paint1_diamond_1008_141)" opacity="1" shape-rendering="crispEdges"/><rect x="0" y="0" width="1223.96" height="764.341" transform="scale(-1 1)" fill="url(#paint1_diamond_1008_141)" opacity="1" shape-rendering="crispEdges"/><rect x="0" y="0" width="1223.96" height="764.341" transform="scale(-1)" fill="url(#paint1_diamond_1008_141)" opacity="1" shape-rendering="crispEdges"/></g></g><path d="M318.523 251.852C322.228 251.816 325.271 254.748 325.4 258.435L325.404 258.611L325.405 258.977C325.364 266.651 321.688 272.576 316.396 276.36C311.241 280.046 304.745 281.618 298.636 281.58C292.52 281.543 286.052 279.889 280.901 276.236C275.65 272.512 271.833 266.695 271.643 259.107L271.636 258.744L271.637 258.568C271.694 254.879 274.679 251.889 278.384 251.852C282.089 251.816 285.133 254.747 285.263 258.434L285.273 258.873C285.373 261.568 286.606 263.555 288.779 265.096C291.207 266.818 294.8 267.906 298.719 267.93C302.645 267.954 306.157 266.908 308.475 265.25C310.507 263.797 311.725 261.859 311.773 259.021L311.775 258.568C311.832 254.879 314.818 251.888 318.523 251.852Z" data-figma-gradient-fill="{&#34;type&#34;:&#34;GRADIENT_DIAMOND&#34;,&#34;stops&#34;:[{&#34;color&#34;:{&#34;r&#34;:1.0,&#34;g&#34;:0.18431372940540314,&#34;b&#34;:0.18039216101169586,&#34;a&#34;:1.0},&#34;position&#34;:0.0},{&#34;color&#34;:{&#34;r&#34;:0.23137255012989044,&#34;g&#34;:0.14117647707462311,&#34;b&#34;:0.40784314274787903,&#34;a&#34;:1.0},&#34;position&#34;:1.0}],&#34;stopsVar&#34;:[{&#34;color&#34;:{&#34;r&#34;:1.0,&#34;g&#34;:0.18431372940540314,&#34;b&#34;:0.18039216101169586,&#34;a&#34;:1.0},&#34;position&#34;:0.0},{&#34;color&#34;:{&#34;r&#34;:0.23137255012989044,&#34;g&#34;:0.14117647707462311,&#34;b&#34;:0.40784314274787903,&#34;a&#34;:1.0},&#34;position&#34;:1.0}],&#34;transform&#34;:{&#34;m00&#34;:-1.4004391179697762e-12,&#34;m01&#34;:504.38491821289062,&#34;m02&#34;:39.3522949218750,&#34;m10&#34;:-384.06646728515625,&#34;m11&#34;:-1.3287552481922038e-12,&#34;m12&#34;:526.073730468750},&#34;opacity&#34;:1.0,&#34;blendMode&#34;:&#34;NORMAL&#34;,&#34;visible&#34;:true}"/>
<g clip-path="url(#paint2_diamond_1008_141_clip_path)" data-figma-skip-parse="true"><g transform="matrix(0 -0.192033 0.252192 0 291.545 334.041)"><rect x="0" y="0" width="1223.96" height="764.341" fill="url(#paint2_diamond_1008_141)" opacity="1" shape-rendering="crispEdges"/><rect x="0" y="0" width="1223.96" height="764.341" transform="scale(1 -1)" fill="url(#paint2_diamond_1008_141)" opacity="1" shape-rendering="crispEdges"/><rect x="0" y="0" width="1223.96" height="764.341" transform="scale(-1 1)" fill="url(#paint2_diamond_1008_141)" opacity="1" shape-rendering="crispEdges"/><rect x="0" y="0" width="1223.96" height="764.341" transform="scale(-1)" fill="url(#paint2_diamond_1008_141)" opacity="1" shape-rendering="crispEdges"/></g></g><path d="M354.566 157.466L354.741 157.468C358.424 157.561 361.381 160.58 361.381 164.291C361.381 168.002 358.424 171.021 354.741 171.114L354.566 171.116H331.077C327.313 171.116 324.262 168.06 324.262 164.291C324.262 160.521 327.313 157.466 331.077 157.466H354.566Z" data-figma-gradient-fill="{&#34;type&#34;:&#34;GRADIENT_DIAMOND&#34;,&#34;stops&#34;:[{&#34;color&#34;:{&#34;r&#34;:1.0,&#34;g&#34;:0.18431372940540314,&#34;b&#34;:0.18039216101169586,&#34;a&#34;:1.0},&#34;position&#34;:0.0},{&#34;color&#34;:{&#34;r&#34;:0.23137255012989044,&#34;g&#34;:0.14117647707462311,&#34;b&#34;:0.40784314274787903,&#34;a&#34;:1.0},&#34;position&#34;:1.0}],&#34;stopsVar&#34;:[{&#34;color&#34;:{&#34;r&#34;:1.0,&#34;g&#34;:0.18431372940540314,&#34;b&#34;:0.18039216101169586,&#34;a&#34;:1.0},&#34;position&#34;:0.0},{&#34;color&#34;:{&#34;r&#34;:0.23137255012989044,&#34;g&#34;:0.14117647707462311,&#34;b&#34;:0.40784314274787903,&#34;a&#34;:1.0},&#34;position&#34;:1.0}],&#34;transform&#34;:{&#34;m00&#34;:-1.4004391179697762e-12,&#34;m01&#34;:504.38491821289062,&#34;m02&#34;:39.3522949218750,&#34;m10&#34;:-384.06646728515625,&#34;m11&#34;:-1.3287552481922038e-12,&#34;m12&#34;:526.073730468750},&#34;opacity&#34;:1.0,&#34;blendMode&#34;:&#34;NORMAL&#34;,&#34;visible&#34;:true}"/>
<g clip-path="url(#paint3_diamond_1008_141_clip_path)" data-figma-skip-parse="true"><g transform="matrix(0 -0.192033 0.252192 0 291.545 334.041)"><rect x="0" y="0" width="1223.96" height="764.341" fill="url(#paint3_diamond_1008_141)" opacity="1" shape-rendering="crispEdges"/><rect x="0" y="0" width="1223.96" height="764.341" transform="scale(1 -1)" fill="url(#paint3_diamond_1008_141)" opacity="1" shape-rendering="crispEdges"/><rect x="0" y="0" width="1223.96" height="764.341" transform="scale(-1 1)" fill="url(#paint3_diamond_1008_141)" opacity="1" shape-rendering="crispEdges"/><rect x="0" y="0" width="1223.96" height="764.341" transform="scale(-1)" fill="url(#paint3_diamond_1008_141)" opacity="1" shape-rendering="crispEdges"/></g></g><path d="M321.412 196.564C326.844 186.724 338.651 180.811 352.731 184.459L353.064 184.547L353.233 184.595C356.766 185.643 358.839 189.327 357.877 192.91C356.915 196.493 353.277 198.641 349.696 197.774L349.526 197.73L349.133 197.628C340.933 195.572 335.624 199.033 333.341 203.169C330.987 207.433 331.375 213.029 336.279 217.131L336.516 217.325L336.652 217.437C339.466 219.818 339.886 224.025 337.568 226.92C335.25 229.814 331.057 230.317 328.126 228.083L327.987 227.974L327.74 227.773C317.352 219.244 316.05 206.275 321.412 196.564Z" data-figma-gradient-fill="{&#34;type&#34;:&#34;GRADIENT_DIAMOND&#34;,&#34;stops&#34;:[{&#34;color&#34;:{&#34;r&#34;:1.0,&#34;g&#34;:0.18431372940540314,&#34;b&#34;:0.18039216101169586,&#34;a&#34;:1.0},&#34;position&#34;:0.0},{&#34;color&#34;:{&#34;r&#34;:0.23137255012989044,&#34;g&#34;:0.14117647707462311,&#34;b&#34;:0.40784314274787903,&#34;a&#34;:1.0},&#34;position&#34;:1.0}],&#34;stopsVar&#34;:[{&#34;color&#34;:{&#34;r&#34;:1.0,&#34;g&#34;:0.18431372940540314,&#34;b&#34;:0.18039216101169586,&#34;a&#34;:1.0},&#34;position&#34;:0.0},{&#34;color&#34;:{&#34;r&#34;:0.23137255012989044,&#34;g&#34;:0.14117647707462311,&#34;b&#34;:0.40784314274787903,&#34;a&#34;:1.0},&#34;position&#34;:1.0}],&#34;transform&#34;:{&#34;m00&#34;:-1.4004391179697762e-12,&#34;m01&#34;:504.38491821289062,&#34;m02&#34;:39.3522949218750,&#34;m10&#34;:-384.06646728515625,&#34;m11&#34;:-1.3287552481922038e-12,&#34;m12&#34;:526.073730468750},&#34;opacity&#34;:1.0,&#34;blendMode&#34;:&#34;NORMAL&#34;,&#34;visible&#34;:true}"/>
<g clip-path="url(#paint4_diamond_1008_141_clip_path)" data-figma-skip-parse="true"><g transform="matrix(0 -0.192033 0.252192 0 291.545 334.041)"><rect x="0" y="0" width="1223.96" height="764.341" fill="url(#paint4_diamond_1008_141)" opacity="1" shape-rendering="crispEdges"/><rect x="0" y="0" width="1223.96" height="764.341" transform="scale(1 -1)" fill="url(#paint4_diamond_1008_141)" opacity="1" shape-rendering="crispEdges"/><rect x="0" y="0" width="1223.96" height="764.341" transform="scale(-1 1)" fill="url(#paint4_diamond_1008_141)" opacity="1" shape-rendering="crispEdges"/><rect x="0" y="0" width="1223.96" height="764.341" transform="scale(-1)" fill="url(#paint4_diamond_1008_141)" opacity="1" shape-rendering="crispEdges"/></g></g><path d="M255.534 170.775C258.455 168.527 262.65 169.01 264.982 171.893C267.313 174.777 266.912 178.987 264.109 181.38L263.974 181.493L244.495 197.287L253.4 199.676C255.872 200.339 257.764 202.333 258.3 204.838C258.837 207.343 257.927 209.938 255.945 211.558L226.007 236.017L225.869 236.126C222.956 238.385 218.76 237.918 216.417 235.043C214.038 232.122 214.473 227.822 217.39 225.44L237.01 209.41L228.046 207.005C225.57 206.341 223.676 204.342 223.143 201.831C222.61 199.321 223.529 196.723 225.521 195.108L255.396 170.884L255.534 170.775Z" data-figma-gradient-fill="{&#34;type&#34;:&#34;GRADIENT_DIAMOND&#34;,&#34;stops&#34;:[{&#34;color&#34;:{&#34;r&#34;:1.0,&#34;g&#34;:0.18431372940540314,&#34;b&#34;:0.18039216101169586,&#34;a&#34;:1.0},&#34;position&#34;:0.0},{&#34;color&#34;:{&#34;r&#34;:0.23137255012989044,&#34;g&#34;:0.14117647707462311,&#34;b&#34;:0.40784314274787903,&#34;a&#34;:1.0},&#34;position&#34;:1.0}],&#34;stopsVar&#34;:[{&#34;color&#34;:{&#34;r&#34;:1.0,&#34;g&#34;:0.18431372940540314,&#34;b&#34;:0.18039216101169586,&#34;a&#34;:1.0},&#34;position&#34;:0.0},{&#34;color&#34;:{&#34;r&#34;:0.23137255012989044,&#34;g&#34;:0.14117647707462311,&#34;b&#34;:0.40784314274787903,&#34;a&#34;:1.0},&#34;position&#34;:1.0}],&#34;transform&#34;:{&#34;m00&#34;:-1.4004391179697762e-12,&#34;m01&#34;:504.38491821289062,&#34;m02&#34;:39.3522949218750,&#34;m10&#34;:-384.06646728515625,&#34;m11&#34;:-1.3287552481922038e-12,&#34;m12&#34;:526.073730468750},&#34;opacity&#34;:1.0,&#34;blendMode&#34;:&#34;NORMAL&#34;,&#34;visible&#34;:true}"/>
<defs>
<clipPath id="paint0_diamond_1008_141_clip_path"><path d="M444.38 259.627C444.38 240.141 432.259 223.748 415.651 217.863C405.498 214.266 395.848 205.521 393.99 193.51C386.959 148.073 348.974 113.651 303.511 113.651C275.874 113.651 251.049 126.337 234.205 146.511C228.423 153.436 219.395 155.958 211.235 154.677L210.847 154.613C188.528 150.766 170.965 167.554 164.81 191.569C161.601 204.09 151.427 213.725 140.485 218.483L139.963 218.706C124.482 225.206 113.415 241.009 113.415 259.627C113.415 284.199 132.611 303.736 155.827 303.736H222.181C229.808 303.736 235.557 310.679 234.145 318.186L226.19 360.457C235.555 350.321 247.628 337.516 258.503 326.798C264.571 320.819 270.372 315.382 275.176 311.403C277.564 309.424 279.847 307.687 281.883 306.408C282.9 305.769 283.986 305.161 285.087 304.695C286.061 304.283 287.528 303.769 289.225 303.738L289.39 303.736H401.967C425.183 303.736 444.38 284.199 444.38 259.627ZM458.011 259.627C458.011 291.315 433.127 317.386 401.967 317.386H290.144C289.913 317.503 289.577 317.689 289.127 317.971C287.816 318.795 286.053 320.108 283.864 321.921C279.513 325.526 274.038 330.64 268.064 336.528C256.145 348.274 233.344 372.33 223.692 382.839C218.05 388.981 207.199 385.569 208.834 377.788L220.424 317.386H155.827C124.667 317.386 99.7837 291.315 99.7837 259.627C99.7837 235.525 114.133 214.75 134.692 206.118L135.076 205.954C143.108 202.457 149.683 195.684 151.607 188.175C158.665 160.638 180.877 135.596 213.159 141.161L213.359 141.193C217.545 141.85 221.507 140.439 223.748 137.755L224.201 137.216C243.459 114.453 271.829 100 303.511 100C356.124 100 399.467 139.763 407.46 191.42C408.353 197.188 413.414 202.591 420.197 204.994C442.301 212.826 458.011 234.411 458.011 259.627Z"/></clipPath><clipPath id="paint1_diamond_1008_141_clip_path"><path d="M318.523 251.852C322.228 251.816 325.271 254.748 325.4 258.435L325.404 258.611L325.405 258.977C325.364 266.651 321.688 272.576 316.396 276.36C311.241 280.046 304.745 281.618 298.636 281.58C292.52 281.543 286.052 279.889 280.901 276.236C275.65 272.512 271.833 266.695 271.643 259.107L271.636 258.744L271.637 258.568C271.694 254.879 274.679 251.889 278.384 251.852C282.089 251.816 285.133 254.747 285.263 258.434L285.273 258.873C285.373 261.568 286.606 263.555 288.779 265.096C291.207 266.818 294.8 267.906 298.719 267.93C302.645 267.954 306.157 266.908 308.475 265.25C310.507 263.797 311.725 261.859 311.773 259.021L311.775 258.568C311.832 254.879 314.818 251.888 318.523 251.852Z"/></clipPath><clipPath id="paint2_diamond_1008_141_clip_path"><path d="M354.566 157.466L354.741 157.468C358.424 157.561 361.381 160.58 361.381 164.291C361.381 168.002 358.424 171.021 354.741 171.114L354.566 171.116H331.077C327.313 171.116 324.262 168.06 324.262 164.291C324.262 160.521 327.313 157.466 331.077 157.466H354.566Z"/></clipPath><clipPath id="paint3_diamond_1008_141_clip_path"><path d="M321.412 196.564C326.844 186.724 338.651 180.811 352.731 184.459L353.064 184.547L353.233 184.595C356.766 185.643 358.839 189.327 357.877 192.91C356.915 196.493 353.277 198.641 349.696 197.774L349.526 197.73L349.133 197.628C340.933 195.572 335.624 199.033 333.341 203.169C330.987 207.433 331.375 213.029 336.279 217.131L336.516 217.325L336.652 217.437C339.466 219.818 339.886 224.025 337.568 226.92C335.25 229.814 331.057 230.317 328.126 228.083L327.987 227.974L327.74 227.773C317.352 219.244 316.05 206.275 321.412 196.564Z"/></clipPath><clipPath id="paint4_diamond_1008_141_clip_path"><path d="M255.534 170.775C258.455 168.527 262.65 169.01 264.982 171.893C267.313 174.777 266.912 178.987 264.109 181.38L263.974 181.493L244.495 197.287L253.4 199.676C255.872 200.339 257.764 202.333 258.3 204.838C258.837 207.343 257.927 209.938 255.945 211.558L226.007 236.017L225.869 236.126C222.956 238.385 218.76 237.918 216.417 235.043C214.038 232.122 214.473 227.822 217.39 225.44L237.01 209.41L228.046 207.005C225.57 206.341 223.676 204.342 223.143 201.831C222.61 199.321 223.529 196.723 225.521 195.108L255.396 170.884L255.534 170.775Z"/></clipPath><linearGradient id="paint0_diamond_1008_141" x1="0" y1="0" x2="500" y2="500" gradientUnits="userSpaceOnUse">
<stop stop-color="#FF2F2E"/>
<stop offset="1" stop-color="#3B2468"/>
</linearGradient>
<linearGradient id="paint1_diamond_1008_141" x1="0" y1="0" x2="500" y2="500" gradientUnits="userSpaceOnUse">
<stop stop-color="#FF2F2E"/>
<stop offset="1" stop-color="#3B2468"/>
</linearGradient>
<linearGradient id="paint2_diamond_1008_141" x1="0" y1="0" x2="500" y2="500" gradientUnits="userSpaceOnUse">
<stop stop-color="#FF2F2E"/>
<stop offset="1" stop-color="#3B2468"/>
</linearGradient>
<linearGradient id="paint3_diamond_1008_141" x1="0" y1="0" x2="500" y2="500" gradientUnits="userSpaceOnUse">
<stop stop-color="#FF2F2E"/>
<stop offset="1" stop-color="#3B2468"/>
</linearGradient>
<linearGradient id="paint4_diamond_1008_141" x1="0" y1="0" x2="500" y2="500" gradientUnits="userSpaceOnUse">
<stop stop-color="#FF2F2E"/>
<stop offset="1" stop-color="#3B2468"/>
</linearGradient>
</defs>
</svg>
