<svg width="935" height="690" viewBox="0 0 935 690" fill="none" xmlns="http://www.w3.org/2000/svg">
<path d="M747.136 590L774.442 529.255H768.497L724.675 430.654H741.411L779.287 518.691L819.145 430.654H835L763.211 590H747.136Z" fill="#121212"/>
<path d="M540.747 541.579V430.653H554.84L555.941 447.38C559.318 441.218 564.016 436.449 570.035 433.074C576.054 429.7 582.734 428.012 590.074 428.012C595.506 428.012 600.571 428.819 605.268 430.433C609.966 432.047 614.077 434.468 617.6 437.696C621.27 440.924 624.133 445.106 626.188 450.241C629.859 443.345 634.997 437.916 641.603 433.955C648.356 429.993 655.55 428.012 663.184 428.012C671.699 428.012 679.039 429.7 685.205 433.074C691.517 436.449 696.435 441.585 699.959 448.481C703.482 455.377 705.244 464.107 705.244 474.672V541.579H689.829V476.432C689.829 464.694 687.407 455.964 682.562 450.241C677.718 444.372 670.965 441.438 662.303 441.438C656.431 441.438 651.072 443.052 646.228 446.28C641.383 449.361 637.566 453.91 634.777 459.926C631.987 465.795 630.593 473.131 630.593 481.935V541.579H615.178V476.432C615.178 464.694 612.756 455.964 607.911 450.241C603.213 444.372 596.533 441.438 587.872 441.438C581.853 441.438 576.421 443.052 571.576 446.28C566.878 449.361 563.135 453.983 560.346 460.146C557.556 466.161 556.162 473.645 556.162 482.595V541.579H540.747Z" fill="#121212"/>
<path d="M456.775 541.579V430.653H470.869L471.97 452.002C474.319 446.867 477.475 442.538 481.439 439.017C485.402 435.495 490.174 432.781 495.752 430.873C501.331 428.966 507.644 428.012 514.69 428.012V444.079H508.745C504.047 444.079 499.496 444.739 495.092 446.06C490.688 447.234 486.797 449.288 483.421 452.222C480.044 455.157 477.328 459.119 475.273 464.107C473.217 469.096 472.19 475.332 472.19 482.815V541.579H456.775Z" fill="#121212"/>
<path d="M371.368 544.22C361.238 544.22 352.063 541.873 343.842 537.177C335.767 532.335 329.381 525.586 324.683 516.929C319.986 508.125 317.637 497.928 317.637 486.336C317.637 474.305 319.986 463.961 324.683 455.304C329.528 446.647 336.061 439.971 344.282 435.275C352.503 430.433 361.679 428.012 371.808 428.012C382.379 428.012 391.701 430.433 399.775 435.275C407.85 439.971 414.236 446.647 418.933 455.304C423.631 463.961 425.98 474.305 425.98 486.336C425.98 497.928 423.558 508.125 418.713 516.929C414.015 525.586 407.556 532.335 399.335 537.177C391.26 541.873 381.938 544.22 371.368 544.22ZM371.588 531.015C378.488 531.015 384.801 529.328 390.526 525.953C396.399 522.578 401.096 517.589 404.62 510.987C408.29 504.237 410.125 495.947 410.125 486.116C410.125 476.139 408.363 467.849 404.84 461.246C401.317 454.643 396.619 449.728 390.747 446.5C385.021 443.125 378.708 441.438 371.808 441.438C365.202 441.438 358.963 443.125 353.091 446.5C347.218 449.875 342.447 454.863 338.777 461.466C335.254 467.922 333.492 476.139 333.492 486.116C333.492 495.947 335.254 504.237 338.777 510.987C342.3 517.589 346.925 522.578 352.65 525.953C358.522 529.328 364.835 531.015 371.588 531.015Z" fill="#121212"/>
<path d="M278.848 541.58C272.535 541.58 267.103 540.626 262.552 538.719C258.001 536.665 254.478 533.363 251.982 528.815C249.633 524.119 248.459 517.737 248.459 509.667V443.859H229.08V430.654H248.459L250.661 404.903H263.874V430.874H297.125V443.859H263.874V509.667C263.874 517.003 265.342 521.992 268.278 524.633C271.214 527.127 276.426 528.374 283.913 528.374H295.364V541.58H278.848Z" fill="#121212"/>
<path d="M155.053 544.221C143.748 544.221 133.912 542.167 125.544 538.059C117.323 533.951 111.011 528.228 106.606 520.892C102.202 513.409 100 504.899 100 495.361H116.075C116.075 501.817 117.543 507.76 120.48 513.189C123.416 518.618 127.746 523.019 133.472 526.394C139.197 529.622 146.391 531.236 155.053 531.236C162.687 531.236 169.073 529.989 174.211 527.495C179.496 524.853 183.533 521.405 186.322 517.15C189.112 512.895 190.506 508.053 190.506 502.624C190.506 496.168 189.112 490.959 186.322 486.998C183.68 483.036 180.01 479.808 175.312 477.314C170.614 474.819 165.256 472.692 159.237 470.931C153.364 469.024 147.125 466.969 140.519 464.769C128.627 460.66 119.892 455.598 114.314 449.582C108.735 443.566 105.872 435.863 105.725 426.473C105.725 418.403 107.561 411.286 111.231 405.124C115.048 398.815 120.553 393.899 127.746 390.378C134.94 386.71 143.455 384.875 153.291 384.875C162.833 384.875 171.128 386.71 178.175 390.378C185.368 393.899 190.947 398.888 194.911 405.344C198.874 411.653 200.856 418.916 200.856 427.133H185.001C185.001 422.438 183.753 417.889 181.258 413.487C178.909 408.939 175.312 405.271 170.467 402.483C165.769 399.548 159.75 398.081 152.41 398.081C146.391 398.081 141.033 399.181 136.335 401.382C131.784 403.437 128.187 406.518 125.544 410.626C122.902 414.588 121.581 419.283 121.581 424.712C121.581 429.994 122.755 434.323 125.104 437.697C127.453 441.072 130.756 443.86 135.013 446.061C139.271 448.262 144.262 450.316 149.988 452.223C155.713 453.984 162.099 456.038 169.146 458.386C176.34 460.88 182.726 463.888 188.304 467.41C193.883 470.931 198.287 475.48 201.517 481.055C204.747 486.484 206.362 493.38 206.362 501.744C206.362 508.934 204.453 515.83 200.636 522.432C196.966 528.888 191.314 534.171 183.68 538.279C176.046 542.241 166.504 544.221 155.053 544.221Z" fill="#121212"/>
<g clip-path="url(#paint0_diamond_1008_139_clip_path)" data-figma-skip-parse="true"><g transform="matrix(0 -0.19132 0.251465 0 488.83 333.171)"><rect x="0" y="0" width="1223.98" height="764.353" fill="url(#paint0_diamond_1008_139)" opacity="1" shape-rendering="crispEdges"/><rect x="0" y="0" width="1223.98" height="764.353" transform="scale(1 -1)" fill="url(#paint0_diamond_1008_139)" opacity="1" shape-rendering="crispEdges"/><rect x="0" y="0" width="1223.98" height="764.353" transform="scale(-1 1)" fill="url(#paint0_diamond_1008_139)" opacity="1" shape-rendering="crispEdges"/><rect x="0" y="0" width="1223.98" height="764.353" transform="scale(-1)" fill="url(#paint0_diamond_1008_139)" opacity="1" shape-rendering="crispEdges"/></g></g><path d="M641.224 259.034C641.224 239.62 629.138 223.288 612.578 217.425C602.454 213.841 592.833 205.129 590.98 193.163C583.969 147.894 546.093 113.6 500.762 113.6C473.204 113.6 448.451 126.239 431.656 146.338C425.891 153.237 416.889 155.75 408.752 154.474L408.365 154.41C386.11 150.577 368.598 167.303 362.461 191.229C359.261 203.703 349.116 213.302 338.206 218.043L337.685 218.265C322.249 224.741 311.214 240.486 311.214 259.034C311.214 283.515 330.355 302.979 353.504 302.979H419.666C427.271 302.979 433.004 309.897 431.595 317.375L423.664 359.489C433.002 349.391 445.039 336.634 455.883 325.956C461.934 319.998 467.719 314.582 472.508 310.618C474.889 308.646 477.166 306.915 479.196 305.641C480.21 305.005 481.293 304.399 482.391 303.935C483.362 303.524 484.825 303.012 486.517 302.981L486.681 302.979H598.934C622.083 302.979 641.224 283.515 641.224 259.034ZM654.816 259.034C654.816 290.605 630.004 316.579 598.934 316.579H487.433C487.203 316.695 486.868 316.88 486.419 317.162C485.112 317.982 483.354 319.29 481.171 321.097C476.833 324.688 471.374 329.783 465.417 335.649C453.532 347.351 430.797 371.319 421.173 381.788C415.547 387.908 404.727 384.508 406.358 376.756L417.914 316.579H353.504C322.434 316.579 297.622 290.604 297.622 259.034C297.622 235.022 311.93 214.323 332.43 205.723L332.813 205.56C340.822 202.077 347.377 195.328 349.296 187.848C356.334 160.413 378.481 135.463 410.671 141.008L410.869 141.04C415.044 141.695 418.994 140.289 421.229 137.615L421.681 137.078C440.883 114.4 469.171 100 500.762 100C553.223 100 596.441 139.615 604.411 191.08C605.301 196.827 610.348 202.21 617.112 204.604C639.151 212.407 654.816 233.912 654.816 259.034Z" data-figma-gradient-fill="{&#34;type&#34;:&#34;GRADIENT_DIAMOND&#34;,&#34;stops&#34;:[{&#34;color&#34;:{&#34;r&#34;:1.0,&#34;g&#34;:0.18431372940540314,&#34;b&#34;:0.18039216101169586,&#34;a&#34;:1.0},&#34;position&#34;:0.0},{&#34;color&#34;:{&#34;r&#34;:0.23137255012989044,&#34;g&#34;:0.14117647707462311,&#34;b&#34;:0.40784314274787903,&#34;a&#34;:1.0},&#34;position&#34;:1.0}],&#34;stopsVar&#34;:[{&#34;color&#34;:{&#34;r&#34;:1.0,&#34;g&#34;:0.18431372940540314,&#34;b&#34;:0.18039216101169586,&#34;a&#34;:1.0},&#34;position&#34;:0.0},{&#34;color&#34;:{&#34;r&#34;:0.23137255012989044,&#34;g&#34;:0.14117647707462311,&#34;b&#34;:0.40784314274787903,&#34;a&#34;:1.0},&#34;position&#34;:1.0}],&#34;transform&#34;:{&#34;m00&#34;:-1.3963993806750952e-12,&#34;m01&#34;:502.92996215820312,&#34;m02&#34;:237.3649902343750,&#34;m10&#34;:-382.63995361328125,&#34;m11&#34;:-1.3238198514828325e-12,&#34;m12&#34;:524.49121093750},&#34;opacity&#34;:1.0,&#34;blendMode&#34;:&#34;NORMAL&#34;,&#34;visible&#34;:true}"/>
<g clip-path="url(#paint1_diamond_1008_139_clip_path)" data-figma-skip-parse="true"><g transform="matrix(0 -0.19132 0.251465 0 488.83 333.171)"><rect x="0" y="0" width="1223.98" height="764.353" fill="url(#paint1_diamond_1008_139)" opacity="1" shape-rendering="crispEdges"/><rect x="0" y="0" width="1223.98" height="764.353" transform="scale(1 -1)" fill="url(#paint1_diamond_1008_139)" opacity="1" shape-rendering="crispEdges"/><rect x="0" y="0" width="1223.98" height="764.353" transform="scale(-1 1)" fill="url(#paint1_diamond_1008_139)" opacity="1" shape-rendering="crispEdges"/><rect x="0" y="0" width="1223.98" height="764.353" transform="scale(-1)" fill="url(#paint1_diamond_1008_139)" opacity="1" shape-rendering="crispEdges"/></g></g><path d="M515.73 251.288C519.424 251.252 522.459 254.173 522.588 257.846L522.592 258.021L522.593 258.387C522.552 266.032 518.887 271.935 513.61 275.705C508.47 279.377 501.992 280.943 495.9 280.906C489.802 280.868 483.353 279.221 478.217 275.582C472.981 271.871 469.175 266.076 468.985 258.516L468.979 258.155L468.979 257.979C469.036 254.304 472.013 251.325 475.708 251.288C479.402 251.252 482.437 254.172 482.566 257.846L482.576 258.283C482.676 260.968 483.905 262.947 486.072 264.483C488.493 266.199 492.076 267.282 495.984 267.306C499.898 267.33 503.4 266.288 505.712 264.636C507.738 263.189 508.952 261.258 509 258.431L509.001 257.979C509.059 254.304 512.036 251.324 515.73 251.288Z" data-figma-gradient-fill="{&#34;type&#34;:&#34;GRADIENT_DIAMOND&#34;,&#34;stops&#34;:[{&#34;color&#34;:{&#34;r&#34;:1.0,&#34;g&#34;:0.18431372940540314,&#34;b&#34;:0.18039216101169586,&#34;a&#34;:1.0},&#34;position&#34;:0.0},{&#34;color&#34;:{&#34;r&#34;:0.23137255012989044,&#34;g&#34;:0.14117647707462311,&#34;b&#34;:0.40784314274787903,&#34;a&#34;:1.0},&#34;position&#34;:1.0}],&#34;stopsVar&#34;:[{&#34;color&#34;:{&#34;r&#34;:1.0,&#34;g&#34;:0.18431372940540314,&#34;b&#34;:0.18039216101169586,&#34;a&#34;:1.0},&#34;position&#34;:0.0},{&#34;color&#34;:{&#34;r&#34;:0.23137255012989044,&#34;g&#34;:0.14117647707462311,&#34;b&#34;:0.40784314274787903,&#34;a&#34;:1.0},&#34;position&#34;:1.0}],&#34;transform&#34;:{&#34;m00&#34;:-1.3963993806750952e-12,&#34;m01&#34;:502.92996215820312,&#34;m02&#34;:237.3649902343750,&#34;m10&#34;:-382.63995361328125,&#34;m11&#34;:-1.3238198514828325e-12,&#34;m12&#34;:524.49121093750},&#34;opacity&#34;:1.0,&#34;blendMode&#34;:&#34;NORMAL&#34;,&#34;visible&#34;:true}"/>
<g clip-path="url(#paint2_diamond_1008_139_clip_path)" data-figma-skip-parse="true"><g transform="matrix(0 -0.19132 0.251465 0 488.83 333.171)"><rect x="0" y="0" width="1223.98" height="764.353" fill="url(#paint2_diamond_1008_139)" opacity="1" shape-rendering="crispEdges"/><rect x="0" y="0" width="1223.98" height="764.353" transform="scale(1 -1)" fill="url(#paint2_diamond_1008_139)" opacity="1" shape-rendering="crispEdges"/><rect x="0" y="0" width="1223.98" height="764.353" transform="scale(-1 1)" fill="url(#paint2_diamond_1008_139)" opacity="1" shape-rendering="crispEdges"/><rect x="0" y="0" width="1223.98" height="764.353" transform="scale(-1)" fill="url(#paint2_diamond_1008_139)" opacity="1" shape-rendering="crispEdges"/></g></g><path d="M551.669 157.252L551.844 157.254C555.516 157.347 558.465 160.355 558.465 164.052C558.465 167.749 555.516 170.757 551.844 170.85L551.669 170.852H528.248C524.495 170.852 521.452 167.808 521.452 164.052C521.452 160.297 524.495 157.252 528.248 157.252H551.669Z" data-figma-gradient-fill="{&#34;type&#34;:&#34;GRADIENT_DIAMOND&#34;,&#34;stops&#34;:[{&#34;color&#34;:{&#34;r&#34;:1.0,&#34;g&#34;:0.18431372940540314,&#34;b&#34;:0.18039216101169586,&#34;a&#34;:1.0},&#34;position&#34;:0.0},{&#34;color&#34;:{&#34;r&#34;:0.23137255012989044,&#34;g&#34;:0.14117647707462311,&#34;b&#34;:0.40784314274787903,&#34;a&#34;:1.0},&#34;position&#34;:1.0}],&#34;stopsVar&#34;:[{&#34;color&#34;:{&#34;r&#34;:1.0,&#34;g&#34;:0.18431372940540314,&#34;b&#34;:0.18039216101169586,&#34;a&#34;:1.0},&#34;position&#34;:0.0},{&#34;color&#34;:{&#34;r&#34;:0.23137255012989044,&#34;g&#34;:0.14117647707462311,&#34;b&#34;:0.40784314274787903,&#34;a&#34;:1.0},&#34;position&#34;:1.0}],&#34;transform&#34;:{&#34;m00&#34;:-1.3963993806750952e-12,&#34;m01&#34;:502.92996215820312,&#34;m02&#34;:237.3649902343750,&#34;m10&#34;:-382.63995361328125,&#34;m11&#34;:-1.3238198514828325e-12,&#34;m12&#34;:524.49121093750},&#34;opacity&#34;:1.0,&#34;blendMode&#34;:&#34;NORMAL&#34;,&#34;visible&#34;:true}"/>
<g clip-path="url(#paint3_diamond_1008_139_clip_path)" data-figma-skip-parse="true"><g transform="matrix(0 -0.19132 0.251465 0 488.83 333.171)"><rect x="0" y="0" width="1223.98" height="764.353" fill="url(#paint3_diamond_1008_139)" opacity="1" shape-rendering="crispEdges"/><rect x="0" y="0" width="1223.98" height="764.353" transform="scale(1 -1)" fill="url(#paint3_diamond_1008_139)" opacity="1" shape-rendering="crispEdges"/><rect x="0" y="0" width="1223.98" height="764.353" transform="scale(-1 1)" fill="url(#paint3_diamond_1008_139)" opacity="1" shape-rendering="crispEdges"/><rect x="0" y="0" width="1223.98" height="764.353" transform="scale(-1)" fill="url(#paint3_diamond_1008_139)" opacity="1" shape-rendering="crispEdges"/></g></g><path d="M518.611 196.205C524.027 186.402 535.8 180.51 549.84 184.145L550.172 184.233L550.341 184.281C553.863 185.325 555.93 188.995 554.971 192.565C554.012 196.135 550.384 198.274 546.814 197.41L546.644 197.367L546.252 197.265C538.076 195.217 532.782 198.665 530.505 202.785C528.158 207.034 528.546 212.609 533.435 216.696L533.671 216.89L533.807 217.001C536.613 219.373 537.032 223.565 534.721 226.448C532.409 229.332 528.229 229.833 525.306 227.607L525.168 227.499L524.921 227.299C514.562 218.801 513.265 205.88 518.611 196.205Z" data-figma-gradient-fill="{&#34;type&#34;:&#34;GRADIENT_DIAMOND&#34;,&#34;stops&#34;:[{&#34;color&#34;:{&#34;r&#34;:1.0,&#34;g&#34;:0.18431372940540314,&#34;b&#34;:0.18039216101169586,&#34;a&#34;:1.0},&#34;position&#34;:0.0},{&#34;color&#34;:{&#34;r&#34;:0.23137255012989044,&#34;g&#34;:0.14117647707462311,&#34;b&#34;:0.40784314274787903,&#34;a&#34;:1.0},&#34;position&#34;:1.0}],&#34;stopsVar&#34;:[{&#34;color&#34;:{&#34;r&#34;:1.0,&#34;g&#34;:0.18431372940540314,&#34;b&#34;:0.18039216101169586,&#34;a&#34;:1.0},&#34;position&#34;:0.0},{&#34;color&#34;:{&#34;r&#34;:0.23137255012989044,&#34;g&#34;:0.14117647707462311,&#34;b&#34;:0.40784314274787903,&#34;a&#34;:1.0},&#34;position&#34;:1.0}],&#34;transform&#34;:{&#34;m00&#34;:-1.3963993806750952e-12,&#34;m01&#34;:502.92996215820312,&#34;m02&#34;:237.3649902343750,&#34;m10&#34;:-382.63995361328125,&#34;m11&#34;:-1.3238198514828325e-12,&#34;m12&#34;:524.49121093750},&#34;opacity&#34;:1.0,&#34;blendMode&#34;:&#34;NORMAL&#34;,&#34;visible&#34;:true}"/>
<g clip-path="url(#paint4_diamond_1008_139_clip_path)" data-figma-skip-parse="true"><g transform="matrix(0 -0.19132 0.251465 0 488.83 333.171)"><rect x="0" y="0" width="1223.98" height="764.353" fill="url(#paint4_diamond_1008_139)" opacity="1" shape-rendering="crispEdges"/><rect x="0" y="0" width="1223.98" height="764.353" transform="scale(1 -1)" fill="url(#paint4_diamond_1008_139)" opacity="1" shape-rendering="crispEdges"/><rect x="0" y="0" width="1223.98" height="764.353" transform="scale(-1 1)" fill="url(#paint4_diamond_1008_139)" opacity="1" shape-rendering="crispEdges"/><rect x="0" y="0" width="1223.98" height="764.353" transform="scale(-1)" fill="url(#paint4_diamond_1008_139)" opacity="1" shape-rendering="crispEdges"/></g></g><path d="M452.923 170.512C455.836 168.272 460.019 168.753 462.344 171.626C464.668 174.499 464.269 178.693 461.473 181.078L461.338 181.19L441.916 196.925L450.796 199.306C453.26 199.967 455.146 201.953 455.681 204.449C456.216 206.945 455.309 209.53 453.333 211.143L423.481 235.512L423.344 235.621C420.439 237.871 416.255 237.406 413.919 234.541C411.547 231.631 411.981 227.348 414.889 224.974L434.452 209.004L425.514 206.608C423.046 205.946 421.157 203.954 420.626 201.453C420.094 198.952 421.01 196.364 422.996 194.755L452.785 170.62L452.923 170.512Z" data-figma-gradient-fill="{&#34;type&#34;:&#34;GRADIENT_DIAMOND&#34;,&#34;stops&#34;:[{&#34;color&#34;:{&#34;r&#34;:1.0,&#34;g&#34;:0.18431372940540314,&#34;b&#34;:0.18039216101169586,&#34;a&#34;:1.0},&#34;position&#34;:0.0},{&#34;color&#34;:{&#34;r&#34;:0.23137255012989044,&#34;g&#34;:0.14117647707462311,&#34;b&#34;:0.40784314274787903,&#34;a&#34;:1.0},&#34;position&#34;:1.0}],&#34;stopsVar&#34;:[{&#34;color&#34;:{&#34;r&#34;:1.0,&#34;g&#34;:0.18431372940540314,&#34;b&#34;:0.18039216101169586,&#34;a&#34;:1.0},&#34;position&#34;:0.0},{&#34;color&#34;:{&#34;r&#34;:0.23137255012989044,&#34;g&#34;:0.14117647707462311,&#34;b&#34;:0.40784314274787903,&#34;a&#34;:1.0},&#34;position&#34;:1.0}],&#34;transform&#34;:{&#34;m00&#34;:-1.3963993806750952e-12,&#34;m01&#34;:502.92996215820312,&#34;m02&#34;:237.3649902343750,&#34;m10&#34;:-382.63995361328125,&#34;m11&#34;:-1.3238198514828325e-12,&#34;m12&#34;:524.49121093750},&#34;opacity&#34;:1.0,&#34;blendMode&#34;:&#34;NORMAL&#34;,&#34;visible&#34;:true}"/>
<defs>
<clipPath id="paint0_diamond_1008_139_clip_path"><path d="M641.224 259.034C641.224 239.62 629.138 223.288 612.578 217.425C602.454 213.841 592.833 205.129 590.98 193.163C583.969 147.894 546.093 113.6 500.762 113.6C473.204 113.6 448.451 126.239 431.656 146.338C425.891 153.237 416.889 155.75 408.752 154.474L408.365 154.41C386.11 150.577 368.598 167.303 362.461 191.229C359.261 203.703 349.116 213.302 338.206 218.043L337.685 218.265C322.249 224.741 311.214 240.486 311.214 259.034C311.214 283.515 330.355 302.979 353.504 302.979H419.666C427.271 302.979 433.004 309.897 431.595 317.375L423.664 359.489C433.002 349.391 445.039 336.634 455.883 325.956C461.934 319.998 467.719 314.582 472.508 310.618C474.889 308.646 477.166 306.915 479.196 305.641C480.21 305.005 481.293 304.399 482.391 303.935C483.362 303.524 484.825 303.012 486.517 302.981L486.681 302.979H598.934C622.083 302.979 641.224 283.515 641.224 259.034ZM654.816 259.034C654.816 290.605 630.004 316.579 598.934 316.579H487.433C487.203 316.695 486.868 316.88 486.419 317.162C485.112 317.982 483.354 319.29 481.171 321.097C476.833 324.688 471.374 329.783 465.417 335.649C453.532 347.351 430.797 371.319 421.173 381.788C415.547 387.908 404.727 384.508 406.358 376.756L417.914 316.579H353.504C322.434 316.579 297.622 290.604 297.622 259.034C297.622 235.022 311.93 214.323 332.43 205.723L332.813 205.56C340.822 202.077 347.377 195.328 349.296 187.848C356.334 160.413 378.481 135.463 410.671 141.008L410.869 141.04C415.044 141.695 418.994 140.289 421.229 137.615L421.681 137.078C440.883 114.4 469.171 100 500.762 100C553.223 100 596.441 139.615 604.411 191.08C605.301 196.827 610.348 202.21 617.112 204.604C639.151 212.407 654.816 233.912 654.816 259.034Z"/></clipPath><clipPath id="paint1_diamond_1008_139_clip_path"><path d="M515.73 251.288C519.424 251.252 522.459 254.173 522.588 257.846L522.592 258.021L522.593 258.387C522.552 266.032 518.887 271.935 513.61 275.705C508.47 279.377 501.992 280.943 495.9 280.906C489.802 280.868 483.353 279.221 478.217 275.582C472.981 271.871 469.175 266.076 468.985 258.516L468.979 258.155L468.979 257.979C469.036 254.304 472.013 251.325 475.708 251.288C479.402 251.252 482.437 254.172 482.566 257.846L482.576 258.283C482.676 260.968 483.905 262.947 486.072 264.483C488.493 266.199 492.076 267.282 495.984 267.306C499.898 267.33 503.4 266.288 505.712 264.636C507.738 263.189 508.952 261.258 509 258.431L509.001 257.979C509.059 254.304 512.036 251.324 515.73 251.288Z"/></clipPath><clipPath id="paint2_diamond_1008_139_clip_path"><path d="M551.669 157.252L551.844 157.254C555.516 157.347 558.465 160.355 558.465 164.052C558.465 167.749 555.516 170.757 551.844 170.85L551.669 170.852H528.248C524.495 170.852 521.452 167.808 521.452 164.052C521.452 160.297 524.495 157.252 528.248 157.252H551.669Z"/></clipPath><clipPath id="paint3_diamond_1008_139_clip_path"><path d="M518.611 196.205C524.027 186.402 535.8 180.51 549.84 184.145L550.172 184.233L550.341 184.281C553.863 185.325 555.93 188.995 554.971 192.565C554.012 196.135 550.384 198.274 546.814 197.41L546.644 197.367L546.252 197.265C538.076 195.217 532.782 198.665 530.505 202.785C528.158 207.034 528.546 212.609 533.435 216.696L533.671 216.89L533.807 217.001C536.613 219.373 537.032 223.565 534.721 226.448C532.409 229.332 528.229 229.833 525.306 227.607L525.168 227.499L524.921 227.299C514.562 218.801 513.265 205.88 518.611 196.205Z"/></clipPath><clipPath id="paint4_diamond_1008_139_clip_path"><path d="M452.923 170.512C455.836 168.272 460.019 168.753 462.344 171.626C464.668 174.499 464.269 178.693 461.473 181.078L461.338 181.19L441.916 196.925L450.796 199.306C453.26 199.967 455.146 201.953 455.681 204.449C456.216 206.945 455.309 209.53 453.333 211.143L423.481 235.512L423.344 235.621C420.439 237.871 416.255 237.406 413.919 234.541C411.547 231.631 411.981 227.348 414.889 224.974L434.452 209.004L425.514 206.608C423.046 205.946 421.157 203.954 420.626 201.453C420.094 198.952 421.01 196.364 422.996 194.755L452.785 170.62L452.923 170.512Z"/></clipPath><linearGradient id="paint0_diamond_1008_139" x1="0" y1="0" x2="500" y2="500" gradientUnits="userSpaceOnUse">
<stop stop-color="#FF2F2E"/>
<stop offset="1" stop-color="#3B2468"/>
</linearGradient>
<linearGradient id="paint1_diamond_1008_139" x1="0" y1="0" x2="500" y2="500" gradientUnits="userSpaceOnUse">
<stop stop-color="#FF2F2E"/>
<stop offset="1" stop-color="#3B2468"/>
</linearGradient>
<linearGradient id="paint2_diamond_1008_139" x1="0" y1="0" x2="500" y2="500" gradientUnits="userSpaceOnUse">
<stop stop-color="#FF2F2E"/>
<stop offset="1" stop-color="#3B2468"/>
</linearGradient>
<linearGradient id="paint3_diamond_1008_139" x1="0" y1="0" x2="500" y2="500" gradientUnits="userSpaceOnUse">
<stop stop-color="#FF2F2E"/>
<stop offset="1" stop-color="#3B2468"/>
</linearGradient>
<linearGradient id="paint4_diamond_1008_139" x1="0" y1="0" x2="500" y2="500" gradientUnits="userSpaceOnUse">
<stop stop-color="#FF2F2E"/>
<stop offset="1" stop-color="#3B2468"/>
</linearGradient>
</defs>
</svg>
