<svg width="936" height="690" viewBox="0 0 936 690" fill="none" xmlns="http://www.w3.org/2000/svg">
<path d="M642.008 259.034C642.008 239.62 629.922 223.288 613.362 217.425C603.238 213.841 593.616 205.129 591.763 193.163C584.753 147.894 546.877 113.6 501.546 113.6C473.987 113.6 449.234 126.239 432.439 146.338C426.674 153.237 417.672 155.75 409.535 154.474L409.148 154.41C386.893 150.577 369.382 167.303 363.245 191.229C360.045 203.703 349.9 213.302 338.989 218.043L338.469 218.265C323.033 224.741 311.997 240.486 311.997 259.034C311.997 283.515 331.139 302.979 354.287 302.979H420.45C428.055 302.979 433.787 309.897 432.379 317.375L424.448 359.489C433.785 349.391 445.823 336.634 456.667 325.956C462.717 319.998 468.502 314.582 473.291 310.618C475.673 308.646 477.95 306.915 479.98 305.641C480.994 305.005 482.076 304.399 483.175 303.935C484.145 303.524 485.609 303.012 487.3 302.981L487.465 302.979H599.718C622.867 302.979 642.008 283.515 642.008 259.034ZM655.599 259.034C655.599 290.605 630.788 316.579 599.718 316.579H488.217C487.986 316.695 487.651 316.88 487.202 317.162C485.896 317.982 484.138 319.29 481.955 321.097C477.616 324.688 472.157 329.783 466.2 335.649C454.316 347.351 431.581 371.319 421.957 381.788C416.331 387.908 405.511 384.508 407.142 376.756L418.698 316.579H354.287C323.217 316.579 298.406 290.605 298.406 259.034C298.406 235.022 312.713 214.323 333.214 205.723L333.596 205.56C341.605 202.077 348.161 195.328 350.08 187.848C357.118 160.413 379.265 135.463 411.454 141.008L411.653 141.04C415.828 141.695 419.778 140.289 422.012 137.615L422.464 137.078C441.666 114.4 469.955 100 501.546 100C554.007 100 597.225 139.615 605.194 191.08C606.084 196.827 611.132 202.21 617.895 204.604C639.935 212.407 655.599 233.912 655.599 259.034Z" fill="white"/>
<path d="M516.514 251.288C520.208 251.252 523.242 254.173 523.371 257.846L523.375 258.021L523.376 258.387C523.336 266.032 519.67 271.935 514.393 275.705C509.253 279.377 502.776 280.943 496.684 280.906C490.586 280.868 484.136 279.221 479.001 275.582C473.765 271.871 469.959 266.076 469.769 258.516L469.762 258.155L469.763 257.979C469.82 254.304 472.797 251.325 476.491 251.288C480.186 251.252 483.22 254.172 483.35 257.846L483.36 258.283C483.46 260.968 484.689 262.947 486.856 264.483C489.277 266.199 492.86 267.282 496.767 267.306C500.681 267.33 504.183 266.288 506.495 264.636C508.521 263.189 509.736 261.258 509.783 258.431L509.785 257.979C509.842 254.304 512.819 251.324 516.514 251.288Z" fill="white"/>
<path d="M552.452 157.252L552.628 157.254C556.3 157.347 559.248 160.355 559.248 164.052C559.248 167.749 556.3 170.757 552.628 170.85L552.452 170.852H529.032C525.279 170.852 522.236 167.808 522.236 164.052C522.236 160.297 525.279 157.252 529.032 157.252H552.452Z" fill="white"/>
<path d="M519.394 196.205C524.811 186.402 536.584 180.51 550.623 184.145L550.955 184.233L551.124 184.281C554.646 185.325 556.713 188.995 555.754 192.565C554.795 196.135 551.168 198.274 547.597 197.41L547.428 197.367L547.036 197.265C538.86 195.217 533.566 198.665 531.289 202.785C528.942 207.034 529.329 212.609 534.218 216.696L534.455 216.89L534.59 217.001C537.397 219.373 537.816 223.565 535.504 226.448C533.193 229.332 529.012 229.833 526.089 227.607L525.951 227.499L525.704 227.299C515.346 218.801 514.049 205.88 519.394 196.205Z" fill="white"/>
<path d="M453.707 170.512C456.619 168.272 460.802 168.753 463.127 171.626C465.452 174.499 465.052 178.693 462.257 181.078L462.122 181.19L442.7 196.925L451.579 199.306C454.043 199.967 455.93 201.953 456.465 204.449C457 206.944 456.093 209.53 454.116 211.143L424.265 235.512L424.127 235.621C421.223 237.871 417.038 237.406 414.703 234.541C412.33 231.631 412.764 227.348 415.673 224.974L435.236 209.004L426.298 206.608C423.829 205.946 421.941 203.954 421.409 201.453C420.878 198.952 421.794 196.364 423.78 194.755L453.569 170.62L453.707 170.512Z" fill="white"/>
<path d="M747.92 590L775.226 529.255H769.28L725.458 430.654H742.194L780.07 518.69L819.928 430.654H835.784L763.995 590H747.92Z" fill="white"/>
<path d="M541.531 541.579V430.653H555.624L556.725 447.38C560.102 441.218 564.799 436.449 570.818 433.074C576.838 429.7 583.517 428.012 590.858 428.012C596.289 428.012 601.354 428.819 606.052 430.433C610.75 432.047 614.861 434.468 618.384 437.696C622.054 440.924 624.917 445.106 626.972 450.241C630.642 443.345 635.78 437.916 642.387 433.955C649.14 429.993 656.333 428.012 663.967 428.012C672.482 428.012 679.823 429.7 685.988 433.074C692.301 436.449 697.219 441.585 700.743 448.481C704.266 455.377 706.028 464.107 706.028 474.672V541.579H690.613V476.432C690.613 464.694 688.191 455.964 683.346 450.241C678.501 444.372 671.748 441.438 663.087 441.438C657.214 441.438 651.856 443.052 647.011 446.28C642.167 449.361 638.35 453.91 635.56 459.925C632.771 465.795 631.376 473.131 631.376 481.935V541.579H615.962V476.432C615.962 464.694 613.539 455.964 608.695 450.241C603.997 444.372 597.317 441.438 588.655 441.438C582.636 441.438 577.205 443.052 572.36 446.28C567.662 449.361 563.919 453.983 561.129 460.146C558.34 466.161 556.945 473.644 556.945 482.595V541.579H541.531Z" fill="white"/>
<path d="M457.559 541.579V430.653H471.652L472.753 452.002C475.102 446.867 478.259 442.538 482.222 439.017C486.186 435.495 490.957 432.781 496.536 430.873C502.115 428.966 508.427 428.012 515.474 428.012V444.079H509.528C504.831 444.079 500.28 444.739 495.875 446.06C491.471 447.234 487.581 449.288 484.204 452.222C480.828 455.157 478.112 459.118 476.056 464.107C474.001 469.096 472.973 475.332 472.973 482.815V541.579H457.559Z" fill="white"/>
<path d="M372.152 544.22C362.022 544.22 352.847 541.873 344.625 537.177C336.551 532.335 330.165 525.586 325.467 516.929C320.769 508.125 318.42 497.928 318.42 486.336C318.42 474.305 320.769 463.96 325.467 455.304C330.312 446.647 336.845 439.971 345.066 435.275C353.287 430.433 362.462 428.012 372.592 428.012C383.162 428.012 392.484 430.433 400.559 435.275C408.633 439.971 415.019 446.647 419.717 455.304C424.415 463.96 426.764 474.305 426.764 486.336C426.764 497.928 424.342 508.125 419.497 516.929C414.799 525.586 408.34 532.335 400.118 537.177C392.044 541.873 382.722 544.22 372.152 544.22ZM372.372 531.015C379.272 531.015 385.585 529.328 391.31 525.953C397.182 522.578 401.88 517.589 405.403 510.987C409.074 504.237 410.909 495.947 410.909 486.116C410.909 476.139 409.147 467.849 405.624 461.246C402.1 454.643 397.402 449.728 391.53 446.5C385.805 443.125 379.492 441.438 372.592 441.438C365.986 441.438 359.747 443.125 353.874 446.5C348.002 449.875 343.231 454.863 339.561 461.466C336.037 467.922 334.276 476.139 334.276 486.116C334.276 495.947 336.037 504.237 339.561 510.987C343.084 517.589 347.708 522.578 353.434 525.953C359.306 529.328 365.619 531.015 372.372 531.015Z" fill="white"/>
<path d="M279.632 541.58C273.319 541.58 267.887 540.626 263.336 538.719C258.785 536.664 255.262 533.363 252.766 528.814C250.417 524.119 249.243 517.737 249.243 509.667V443.859H229.864V430.654H249.243L251.445 404.903H264.657V430.874H297.909V443.859H264.657V509.667C264.657 517.003 266.125 521.992 269.062 524.633C271.998 527.127 277.209 528.374 284.697 528.374H296.147V541.58H279.632Z" fill="white"/>
<path d="M155.836 544.221C144.532 544.221 134.696 542.167 126.328 538.059C118.107 533.95 111.794 528.228 107.39 520.892C102.986 513.409 100.784 504.898 100.784 495.361H116.859C116.859 501.817 118.327 507.76 121.263 513.189C124.199 518.617 128.53 523.019 134.256 526.394C139.981 529.622 147.175 531.236 155.836 531.236C163.47 531.236 169.856 529.989 174.995 527.494C180.28 524.853 184.317 521.405 187.106 517.15C189.895 512.895 191.29 508.053 191.29 502.624C191.29 496.168 189.895 490.959 187.106 486.998C184.464 483.036 180.793 479.808 176.096 477.314C171.398 474.819 166.039 472.692 160.02 470.931C154.148 469.024 147.909 466.969 141.302 464.768C129.411 460.66 120.676 455.598 115.097 449.582C109.519 443.566 106.656 435.863 106.509 426.473C106.509 418.403 108.344 411.286 112.014 405.124C115.831 398.815 121.337 393.899 128.53 390.378C135.724 386.71 144.239 384.875 154.075 384.875C163.617 384.875 171.912 386.71 178.958 390.378C186.152 393.899 191.731 398.888 195.694 405.344C199.658 411.653 201.64 418.916 201.64 427.133H185.785C185.785 422.438 184.537 417.889 182.041 413.487C179.692 408.939 176.096 405.271 171.251 402.483C166.553 399.548 160.534 398.081 153.194 398.081C147.175 398.081 141.816 399.181 137.118 401.382C132.567 403.436 128.971 406.518 126.328 410.626C123.686 414.588 122.364 419.283 122.364 424.712C122.364 429.994 123.539 434.323 125.888 437.697C128.237 441.072 131.54 443.86 135.797 446.061C140.055 448.262 145.046 450.316 150.771 452.223C156.497 453.984 162.883 456.038 169.93 458.386C177.123 460.88 183.509 463.888 189.088 467.41C194.667 470.931 199.071 475.48 202.301 481.055C205.53 486.484 207.145 493.38 207.145 501.744C207.145 508.933 205.237 515.83 201.42 522.432C197.75 528.888 192.098 534.171 184.464 538.279C176.83 542.241 167.287 544.221 155.836 544.221Z" fill="white"/>
</svg>
